<?xml version="1.0" standalone="no"?>

<!DOCTYPE svg PUBLIC "-//W3C//DTD SVG 1.1//EN" 
"http://www.w3.org/Graphics/SVG/1.1/DTD/svg11.dtd">
 
<svg width="100%" height="100%" version="1.1"
xmlns="http://www.w3.org/2000/svg">
 <g transform="translate(10  0)">
    <rect x="0" y="0" width="1000" height="1000"  fill="none" stroke="#010101" stroke-width="1" />
<g transform="translate(-573.328810 -695.73510) rotate(0)"> 
<path d="M578.312 722.6269 L605.928 750.635 L730.885 743.895 L652.973 718.995 L609.879 700.323 Z" fill="#8498d1" stroke="#010101" stroke-width="1" /> 
</g> 
<g transform="translate(353.928810 583.60340) rotate(180)"> 
<path d="M196.401 495.929 L224.016 523.938 L348.972 517.196 L271.061 492.297 L227.967 473.625 Z" fill="#8498d1" stroke="#010101" stroke-width="1" /> 
</g> 
<g transform="translate(-660.20610 1172.10020) rotate(270)"> 
<path d="M928.898 687.098 L956.514 715.105 L1081.471 708.365 L1003.559 683.466 L960.465 664.794 Z" fill="#8498d1" stroke="#010101" stroke-width="1" /> 
</g> 
<g transform="translate(-905.720510 -68.22230) rotate(0)"> 
<path d="M996.531 179.454 L966.451 208.826 L979.936 232.686 L1002.366 239.603 L1008.463 229.574 L1034.137 231.389 L1038.285 190.151 Z" fill="#8498d1" stroke="#010101" stroke-width="1" /> 
</g> 
<g transform="translate(303.557110 799.62980) rotate(180)"> 
<path d="M198.394 558.6269 L168.314 587.999 L181.798 611.8579 L204.229 618.775 L210.326 608.747 L236 610.562 L240.148 569.324 Z" fill="#8498d1" stroke="#010101" stroke-width="1" /> 
</g> 
<g transform="translate(900.241310 -330.9640) rotate(90)"> 
<path d="M598.52 813.989 L568.439 843.361 L581.924 867.221 L604.355 874.138 L610.451 864.109 L636.125 865.924 L640.273 824.687 Z" fill="#8498d1" stroke="#010101" stroke-width="1" /> 
</g> 
<g transform="translate(582.309610 -505.84740) rotate(90)"> 
<path d="M777.062 428.025 L746.9829 457.397 L760.468 481.256 L782.898 488.173 L788.995 478.145 L814.669 479.959 L818.817 438.722 Z" fill="#8498d1" stroke="#010101" stroke-width="1" /> 
</g> 
<g transform="translate(295.338510 -259.60440) rotate(90)"> 
<path d="M601.5309 174.639 L571.451 204.011 L584.936 227.87 L607.366 234.787 L613.463 224.759 L639.1369 226.573 L643.285 185.336 Z" fill="#8498d1" stroke="#010101" stroke-width="1" /> 
</g> 
<g transform="translate(883.730810 -603.60590) rotate(90)"> 
<path d="M993.52 818.8049 L963.439 848.177 L976.924 872.036 L999.355 878.953 L1005.451 868.925 L1031.125 870.739 L1035.273 829.5019 Z" fill="#8498d1" stroke="#010101" stroke-width="1" /> 
</g> 
<g transform="translate(704.734110 -344.06220) rotate(90)"> 
<path d="M758.061 626.35 L800.104 626.854 L807.438 600.447 L796.468 579.694 L785.065 582.4779 L768.195 563.04 L736.104 589.264 Z" fill="#8498d1" stroke="#010101" stroke-width="1" /> 
</g> 
<g transform="translate(636.723310 814.61160) rotate(180)"> 
<path d="M582.528 372.964 L624.57 373.468 L631.9059 347.062 L620.936 326.309 L609.533 329.092 L592.663 309.654 L560.571 335.878 Z" fill="#8498d1" stroke="#010101" stroke-width="1" /> 
</g> 
<g transform="translate(-877.875610 157.19790) rotate(0)"> 
<path d="M977.528 377.779 L1019.57 378.283 L1026.906 351.877 L1015.936 331.124 L1004.533 333.907 L987.663 314.47 L955.571 340.693 Z" fill="#8498d1" stroke="#010101" stroke-width="1" /> 
</g> 
<g transform="translate(-822.727810 99.58960) rotate(0)"> 
<path d="M836.717 410.401 L827.633 456.421 L894.106 463.102 L910.101 434.273 Z" fill="#8498d1" stroke="#010101" stroke-width="1" /> 
</g> 
<g transform="translate(-413.191310 649.38910) rotate(270)"> 
<path d="M258.047 541.004 L248.963 587.023 L315.438 593.7039 L331.431 564.875 Z" fill="#8498d1" stroke="#010101" stroke-width="1" /> 
</g> 
<g transform="translate(1206.570810 758.86970) rotate(180)"> 
<path d="M1056.186 161.831 L1047.101 207.851 L1113.574 214.531 L1129.568 185.702 Z" fill="#8498d1" stroke="#010101" stroke-width="1" /> 
</g> 
<g transform="translate(-664.695810 843.29620) rotate(270)"> 
<path d="M658.174 796.366 L649.09 842.386 L715.562 849.066 L731.557 820.237 Z" fill="#8498d1" stroke="#010101" stroke-width="1" /> 
</g> 
<g transform="translate(739.521410 789.98690) rotate(180)"> 
<path d="M661.1849 157.016 L652.101 203.035 L718.574 209.716 L734.568 180.887 Z" fill="#8498d1" stroke="#010101" stroke-width="1" /> 
</g> 
<g transform="translate(999.721510 -627.87670) rotate(90)"> 
<path d="M1053.174 801.182 L1044.09 847.201 L1110.5619 853.882 L1126.557 825.053 Z" fill="#8498d1" stroke="#010101" stroke-width="1" /> 
</g> 
<g transform="translate(-323.325410 -68.87180) rotate(0)"> 
<path d="M420.28 658.673 L456.792 689.014 L501.526 689.014 L501.526 711.965 L420.28 711.965 Z" fill="#8498d1" stroke="#010101" stroke-width="1" /> 
</g> 
<g transform="translate(-349.240510 1209.87710) rotate(270)"> 
<path d="M599.735 501.612 L636.247 531.953 L680.981 531.953 L680.981 554.904 L599.735 554.904 Z" fill="#8498d1" stroke="#010101" stroke-width="1" /> 
</g> 
<g transform="translate(-98.514410 1127.94070) rotate(270)"> 
<path d="M819.203 253.042 L855.715 283.383 L900.449 283.383 L900.449 306.334 L819.203 306.334 Z" fill="#8498d1" stroke="#010101" stroke-width="1" /> 
</g> 
<g transform="translate(-474.147510 123.46980) rotate(270)"> 
<path d="M21.066 632.215 L57.578 662.556 L102.312 662.556 L102.312 685.5069 L21.066 685.5069 Z" fill="#8498d1" stroke="#010101" stroke-width="1" /> 
</g> 
<g transform="translate(1066.979910 1195.42380) rotate(180)"> 
<path d="M980.735 499.406 L1017.247 529.747 L1061.98 529.747 L1061.98 552.698 L980.735 552.698 Z" fill="#8498d1" stroke="#010101" stroke-width="1" /> 
</g> 
<g transform="translate(-302.938810 1141.64010) rotate(270)"> 
<path d="M447.82 473.495 L428.112 505.654 L482.95 508.766 L521.641 491.13 L471.161 494.242 L468.322 471.419 Z" fill="#8498d1" stroke="#010101" stroke-width="1" /> 
</g> 
<g transform="translate(698.88710 277.9720) rotate(90)"> 
<path d="M66.8199 475.701 L47.112 507.86 L101.95 510.972 L140.6399 493.336 L90.161 496.448 L87.322 473.625 Z" fill="#8498d1" stroke="#010101" stroke-width="1" /> 
</g> 
<g transform="translate(-807.098410 -20.33960) rotate(0)"> 
<path d="M843.732 707.215 L824.023 739.374 L878.861 742.484 L917.553 724.85 L867.072 727.962 L864.234 705.139 Z" fill="#8498d1" stroke="#010101" stroke-width="1" /> 
</g> 
<g transform="translate(763.271310 -418.33670) rotate(90)"> 
<path d="M1071.43 618.179 L1119.334 618.179 L1119.334 644.047 L1071.43 644.047 Z" fill="#8498d1" stroke="#010101" stroke-width="1" /> 
</g> 
<g transform="translate(886.419310 1390.57320) rotate(180)"> 
<path d="M720.844 653.708 L768.748 653.708 L768.748 679.576 L720.844 679.576 Z" fill="#8498d1" stroke="#010101" stroke-width="1" /> 
</g> 
<g transform="translate(562.410310 1176.36920) rotate(180)"> 
<path d="M338.931 427.01 L386.835 427.01 L386.835 452.878 L338.931 452.878 Z" fill="#8498d1" stroke="#010101" stroke-width="1" /> 
</g> 
<g transform="translate(-1032.906110 -302.20230) rotate(0)"> 
<path d="M1037.906 618.179 L1054.916 618.179 L1054.916 658.572 L1037.906 658.572 Z" fill="#8498d1" stroke="#010101" stroke-width="1" /> 
</g> 
<g transform="translate(-422.009910 1053.0750) rotate(270)"> 
<path d="M305.408 427.01 L322.418 427.01 L322.418 467.403 L305.408 467.403 Z" fill="#8498d1" stroke="#010101" stroke-width="1" /> 
</g> 
<g transform="translate(-598.314810 1436.46640) rotate(270)"> 
<path d="M687.32 653.708 L704.33 653.708 L704.33 694.1 L687.32 694.1 Z" fill="#8498d1" stroke="#010101" stroke-width="1" /> 
</g> 
<g transform="translate(641.199710 8.77290) rotate(90)"> 
<path d="M87.919 607.0359 L85.5849 634.159 L102.962 636.235 L116.188 630.519 L113.592 613.673 Z" fill="#8498d1" stroke="#010101" stroke-width="1" /> 
</g> 
<g transform="translate(643.861110 -827.05560) rotate(90)"> 
<path d="M1047.589 474.228 L1045.255 501.351 L1062.632 503.427 L1075.857 497.71 L1073.262 480.864 Z" fill="#8498d1" stroke="#010101" stroke-width="1" /> 
</g> 
<g transform="translate(650.521810 -659.27350) rotate(90)"> 
<path d="M666.589 476.434 L664.255 503.557 L681.6319 505.633 L694.857 499.916 L692.2619 483.07 Z" fill="#8498d1" stroke="#010101" stroke-width="1" /> 
</g> 
<g transform="translate(-452.48510 1003.890) rotate(270)"> 
<path d="M487.134 633.494 L484.8 660.617 L502.177 662.693 L515.402 656.977 L512.807 640.131 Z" fill="#8498d1" stroke="#010101" stroke-width="1" /> 
</g> 
<g transform="translate(1101.558710 447.17630) rotate(180)"> 
<path d="M886.057 227.863 L883.723 254.986 L901.1 257.063 L914.325 251.346 L911.729 234.5 Z" fill="#8498d1" stroke="#010101" stroke-width="1" /> 
</g> 
<g transform="translate(650.302410 128.16960) rotate(90)"> 
<path d="M21.066 439.913 L51.979 439.913 L51.979 458.068 L21.066 458.068 Z" fill="#8498d1" stroke="#010101" stroke-width="1" /> 
</g> 
<g transform="translate(657.393610 45.56830) rotate(90)"> 
<path d="M402.0659 437.707 L432.9779 437.707 L432.9779 455.862 L402.0659 455.862 Z" fill="#8498d1" stroke="#010101" stroke-width="1" /> 
</g> 
<g transform="translate(1023.23610 810.66240) rotate(180)"> 
<path d="M797.979 671.427 L828.891 671.427 L828.891 689.582 L797.979 689.582 Z" fill="#8498d1" stroke="#010101" stroke-width="1" /> 
</g> 
<g transform="translate(1152.540210 63.16970) rotate(90)"> 
<path d="M563.383 919.432 L559.621 926.865 L550.1559 929.546 L550.1559 937.715 L559.621 940.869 L563.383 946.966 L571.941 946.966 L575.1799 942.553 L581.07 937.736 L581.07 929.546 L575.1799 926.087 L570.123 919.432 Z" fill="#8498d1" stroke="#010101" stroke-width="1" /> 
</g> 
<g transform="translate(-772.702810 156.90310) rotate(0)"> 
<path d="M978.783 280.731 L995.188 252.316 L1011.596 280.731 Z" fill="#8498d1" stroke="#010101" stroke-width="1" /> 
</g> 
<g transform="translate(829.820810 280.91480) rotate(180)"> 
<path d="M583.783 275.915 L600.188 247.5 L616.596 275.915 Z" fill="#8498d1" stroke="#010101" stroke-width="1" /> 
</g> 
<g transform="translate(-549.414710 -204.31660) rotate(0)"> 
<path d="M759.315 529.301 L775.721 500.886 L792.128 529.301 Z" fill="#8498d1" stroke="#010101" stroke-width="1" /> 
</g> 
<g transform="translate(-368.241710 -201.77460) rotate(0)"> 
<path d="M580.771 915.266 L597.178 886.851 L613.5839 915.266 Z" fill="#8498d1" stroke="#010101" stroke-width="1" /> 
</g> 
<g transform="translate(875.566410 389.94560) rotate(90)"> 
<path d="M180.6459 659.903 L197.0509 631.488 L213.458 659.903 Z" fill="#8498d1" stroke="#010101" stroke-width="1" /> 
</g> 
<g transform="translate(-702.469510 -279.25280) rotate(0)"> 
<path d="M916.535 655.9779 L942.498 655.9779 L942.498 673.615 L916.535 673.615 Z" fill="#8498d1" stroke="#010101" stroke-width="1" /> 
</g> 
<g transform="translate(425.664410 1025.63410) rotate(180)"> 
<path d="M184.038 464.809 L210.001 464.809 L210.001 482.446 L184.038 482.446 Z" fill="#8498d1" stroke="#010101" stroke-width="1" /> 
</g> 
<g transform="translate(741.152810 -241.99620) rotate(90)"> 
<path d="M565.949 691.5069 L591.9119 691.5069 L591.9119 709.1429 L565.949 709.1429 Z" fill="#8498d1" stroke="#010101" stroke-width="1" /> 
</g> 
<g transform="translate(-350.410810 936.25750) rotate(270)"> 
<path d="M694.308 592.604 L687.232 583.727 L689.758 572.6609 L699.984 567.735 L710.211 572.6609 L712.736 583.727 L705.658 592.604 Z" fill="#8498d1" stroke="#010101" stroke-width="1" /> 
</g> 
<g transform="translate(-481.013810 396.51220) rotate(270)"> 
<path d="M115.638 723.206 L108.563 714.3289 L111.088 703.264 L121.315 698.338 L131.542 703.264 L134.067 714.3289 L126.989 723.206 Z" fill="#8498d1" stroke="#010101" stroke-width="1" /> 
</g> 
<g transform="translate(1197.278610 688.58230) rotate(180)"> 
<path d="M960.774 179.768 L953.696 170.891 L956.225 159.825 L966.451 154.899 L976.674 159.825 L979.203 170.891 L972.122 179.768 Z" fill="#8498d1" stroke="#010101" stroke-width="1" /> 
</g> 
<g transform="translate(-292.882810 1082.3020) rotate(270)"> 
<path d="M901.184 537.646 L894.106 528.769 L896.635 517.703 L906.861 512.777 L917.084 517.703 L919.613 528.769 L912.532 537.646 Z" fill="#8498d1" stroke="#010101" stroke-width="1" /> 
</g> 
<g transform="translate(1153.41910 995.59440) rotate(180)"> 
<path d="M913.775 344.033 L906.7 335.156 L909.226 324.091 L919.452 319.165 L929.679 324.091 L932.204 335.156 L925.126 344.033 Z" fill="#8498d1" stroke="#010101" stroke-width="1" /> 
</g> 
<g transform="translate(1314.9710 679.88330) rotate(180)"> 
<path d="M1075.308 590.397 L1068.232 581.521 L1070.758 570.455 L1080.984 565.529 L1091.211 570.455 L1093.736 581.521 L1086.6579 590.397 Z" fill="#8498d1" stroke="#010101" stroke-width="1" /> 
</g> 
<g transform="translate(-286.54310 -670.17760) rotate(0)"> 
<path d="M514.852 749.664 L507.777 740.787 L510.303 729.722 L520.529 724.796 L530.756 729.722 L533.2809 740.787 L526.203 749.664 Z" fill="#8498d1" stroke="#010101" stroke-width="1" /> 
</g> 
<g transform="translate(-307.660410 655.59190) rotate(270)"> 
<path d="M162.637 558.94 L155.559 550.062 L158.087 538.998 L168.314 534.071 L178.537 538.998 L181.066 550.062 L173.985 558.94 Z" fill="#8498d1" stroke="#010101" stroke-width="1" /> 
</g> 
<g transform="translate(82.900810 1306.99290) rotate(270)"> 
<path d="M565.774 174.952 L558.696 166.075 L561.225 155.01 L571.451 150.083 L581.674 155.01 L584.203 166.075 L577.122 174.952 Z" fill="#8498d1" stroke="#010101" stroke-width="1" /> 
</g> 
<g transform="translate(-322.187110 -455.44580) rotate(0)"> 
<path d="M562.764 814.303 L555.686 805.426 L558.213 794.359 L568.439 789.434 L578.662 794.359 L581.191 805.426 L574.111 814.303 Z" fill="#8498d1" stroke="#010101" stroke-width="1" /> 
</g> 
<g transform="translate(978.514410 416.56360) rotate(180)"> 
<path d="M725.651 284.26 L718.574 275.383 L721.104 264.317 L731.3289 259.392 L741.552 264.317 L744.081 275.383 L737 284.26 Z" fill="#8498d1" stroke="#010101" stroke-width="1" /> 
</g> 
<g transform="translate(-407.785710 535.07350) rotate(270)"> 
<path d="M322.514 668.248 L315.438 659.371 L317.9649 648.306 L328.192 643.38 L338.415 648.306 L340.944 659.371 L333.863 668.248 Z" fill="#8498d1" stroke="#010101" stroke-width="1" /> 
</g> 
<g transform="translate(-499.116710 193.84910) rotate(0)"> 
<path d="M741.307 428.338 L734.229 419.461 L736.7569 408.396 L746.9829 403.469 L757.206 408.396 L759.735 419.461 L752.654 428.338 Z" fill="#8498d1" stroke="#010101" stroke-width="1" /> 
</g> 
<g transform="translate(1377.538510 690.8380) rotate(180)"> 
<path d="M1120.651 289.075 L1113.574 280.198 L1116.104 269.133 L1126.329 264.207 L1136.552 269.133 L1139.0809 280.198 L1132 289.075 Z" fill="#8498d1" stroke="#010101" stroke-width="1" /> 
</g> 
<g transform="translate(-475.471710 -873.19110) rotate(0)"> 
<path d="M722.641 923.609 L715.562 914.734 L718.092 903.668 L728.318 898.742 L738.541 903.668 L741.07 914.734 L733.988 923.609 Z" fill="#8498d1" stroke="#010101" stroke-width="1" /> 
</g> 
<g transform="translate(-554.17710 1418.58240) rotate(270)"> 
<path d="M957.764 819.118 L950.686 810.241 L953.213 799.176 L963.439 794.249 L973.662 799.176 L976.191 810.241 L969.111 819.118 Z" fill="#8498d1" stroke="#010101" stroke-width="1" /> 
</g> 
<g transform="translate(707.400910 -355.81630) rotate(90)"> 
<path d="M644.789 684.767 L661.793 684.767 L661.793 702.401 L644.789 702.401 Z" fill="#8498d1" stroke="#010101" stroke-width="1" /> 
</g> 
<g transform="translate(-350.283610 284.880) rotate(270)"> 
<path d="M262.8759 458.068 L279.88 458.068 L279.88 475.701 L262.8759 475.701 Z" fill="#8498d1" stroke="#010101" stroke-width="1" /> 
</g> 
<g transform="translate(-750.623210 -357.74460) rotate(0)"> 
<path d="M995.375 649.237 L1012.379 649.237 L1012.379 666.87 L995.375 666.87 Z" fill="#8498d1" stroke="#010101" stroke-width="1" /> 
</g> 
<g transform="translate(-351.744610 233.21830) rotate(0)"> 
<path d="M617.292 458.369 L618.742 465.049 L599.735 465.566 L599.735 447.28 Z" fill="#8498d1" stroke="#010101" stroke-width="1" /> 
</g> 
<g transform="translate(-730.706510 -71.59390) rotate(0)"> 
<path d="M998.292 456.163 L999.742 462.843 L980.735 463.359 L980.735 445.074 Z" fill="#8498d1" stroke="#010101" stroke-width="1" /> 
</g> 
<g transform="translate(-453.973910 960.35880) rotate(270)"> 
<path d="M437.837 615.4299 L439.287 622.109 L420.28 622.626 L420.28 604.341 Z" fill="#8498d1" stroke="#010101" stroke-width="1" /> 
</g> 
<g transform="translate(-569.057410 48.28070) rotate(0)"> 
<path d="M836.76 209.799 L838.2089 216.479 L819.203 216.995 L819.203 198.71 Z" fill="#8498d1" stroke="#010101" stroke-width="1" /> 
</g> 
<g transform="translate(-565.058810 -275.8740) rotate(0)"> 
<path d="M833.748 849.15 L835.197 855.829 L816.191 856.346 L816.191 838.061 Z" fill="#8498d1" stroke="#010101" stroke-width="1" /> 
</g> 
<g transform="translate(282.415610 1231.65420) rotate(180)"> 
<path d="M38.623 588.972 L40.072 595.651 L21.066 596.168 L21.066 577.883 Z" fill="#8498d1" stroke="#010101" stroke-width="1" /> 
</g> 
<g transform="translate(320.926610 1268.95060) rotate(180)"> 
<path d="M68.73 730.111 L73.08 733.591 L51.17 737.3049 L51.17 719.021 Z" fill="#8498d1" stroke="#010101" stroke-width="1" /> 
</g> 
<g transform="translate(528.110610 1186.2170) rotate(180)"> 
<path d="M275.604 675.153 L279.956 678.633 L258.047 682.354 L258.047 664.069 Z" fill="#8498d1" stroke="#010101" stroke-width="1" /> 
</g> 
<g transform="translate(-344.599910 -4.34550) rotate(0)"> 
<path d="M467.944 756.569 L472.294 760.049 L450.385 763.763 L450.385 745.479 Z" fill="#8498d1" stroke="#010101" stroke-width="1" /> 
</g> 
<g transform="translate(455.864210 23.14850) rotate(90)"> 
<path d="M684.045 443.734 L688.396 447.215 L666.488 450.935 L666.488 432.651 Z" fill="#8498d1" stroke="#010101" stroke-width="1" /> 
</g> 
<g transform="translate(1317.73110 529.53090) rotate(180)"> 
<path d="M1065.045 441.528 L1069.396 445.009 L1047.488 448.729 L1047.488 430.445 Z" fill="#8498d1" stroke="#010101" stroke-width="1" /> 
</g> 
<g transform="translate(665.329510 -530.18810) rotate(90)"> 
<path d="M647.399 599.509 L651.749 602.988 L629.84 606.702 L629.84 588.419 Z" fill="#8498d1" stroke="#010101" stroke-width="1" /> 
</g> 
<g transform="translate(1156.830710 316.25650) rotate(180)"> 
<path d="M903.513 195.1639 L907.864 198.645 L885.956 202.364 L885.956 184.081 Z" fill="#8498d1" stroke="#010101" stroke-width="1" /> 
</g> 
<g transform="translate(612.148910 -684.8770) rotate(90)"> 
<path d="M866.867 350.939 L871.217 354.418 L849.308 358.132 L849.308 339.849 Z" fill="#8498d1" stroke="#010101" stroke-width="1" /> 
</g> 
<g transform="translate(-568.218310 1121.57860) rotate(270)"> 
<path d="M900.502 834.515 L904.854 837.995 L882.945 841.715 L882.945 823.432 Z" fill="#8498d1" stroke="#010101" stroke-width="1" /> 
</g> 
<g transform="translate(-328.303910 1081.71260) rotate(270)"> 
<path d="M1028.3989 597.303 L1032.749 600.782 L1010.84 604.496 L1010.84 586.213 Z" fill="#8498d1" stroke="#010101" stroke-width="1" /> 
</g> 
<g transform="translate(-349.438410 157.07420) rotate(0)"> 
<path d="M504.59 600.795 L508.941 604.275 L487.033 607.995 L487.033 589.712 Z" fill="#8498d1" stroke="#010101" stroke-width="1" /> 
</g> 
<g transform="translate(-429.212110 473.42890) rotate(0)"> 
<path d="M678.741 291.165 L683.093 294.645 L661.1849 298.3639 L661.1849 280.081 Z" fill="#8498d1" stroke="#010101" stroke-width="1" /> 
</g> 
<g transform="translate(-304.988110 846.59690) rotate(270)"> 
<path d="M105.375 574.337 L109.727 577.817 L87.819 581.537 L87.819 563.254 Z" fill="#8498d1" stroke="#010101" stroke-width="1" /> 
</g> 
<g transform="translate(-274.257110 1512.52620) rotate(270)"> 
<path d="M854.273 544.551 L858.625 548.03 L836.717 551.75 L836.717 533.467 Z" fill="#8498d1" stroke="#010101" stroke-width="1" /> 
</g> 
<g transform="translate(-659.849610 1025.91290) rotate(270)"> 
<path d="M675.73 930.516 L680.082 933.995 L658.174 937.715 L658.174 919.432 Z" fill="#8498d1" stroke="#010101" stroke-width="1" /> 
</g> 
<g transform="translate(-1007.702710 471.66070) rotate(0)"> 
<path d="M1073.741 295.981 L1078.093 299.46 L1056.186 303.18 L1056.186 284.897 Z" fill="#8498d1" stroke="#010101" stroke-width="1" /> 
</g> 
<g transform="translate(-878.6710 73.2720) rotate(0)"> 
<path d="M883.67 684.395 L913.234 684.395 L913.234 689.583 L883.67 689.583 Z" fill="#8498d1" stroke="#010101" stroke-width="1" /> 
</g> 
<g transform="translate(-407.467610 318.6720) rotate(0)"> 
<path d="M487.758 450.675 L517.322 450.675 L517.322 455.863 L487.758 455.863 Z" fill="#8498d1" stroke="#010101" stroke-width="1" /> 
</g> 
<g transform="translate(463.06910 142.65160) rotate(90)"> 
<path d="M106.758 452.881 L136.321 452.881 L136.321 458.069 L106.758 458.069 Z" fill="#8498d1" stroke="#010101" stroke-width="1" /> 
</g> 
<g transform="translate(594.006710 -1033.49770) rotate(90)"> 
<path d="M1104.9079 438.68 L1096.362 440.257 L1090.719 433.644 L1093.627 425.454 L1102.17 423.873 L1107.811 430.486 Z" fill="#8498d1" stroke="#010101" stroke-width="1" /> 
</g> 
<g transform="translate(-405.508810 624.96850) rotate(270)"> 
<path d="M305.116 680.797 L296.571 682.374 L290.927 675.761 L293.835 667.57 L302.378 665.99 L308.0179 672.604 Z" fill="#8498d1" stroke="#010101" stroke-width="1" /> 
</g> 
<g transform="translate(-21.408710 1182.95330) rotate(270)"> 
<path d="M708.253 296.809 L699.708 298.386 L694.064 291.773 L696.973 283.582 L705.516 282.002 L711.155 288.615 Z" fill="#8498d1" stroke="#010101" stroke-width="1" /> 
</g> 
<g transform="translate(-449.571210 281.4450) rotate(0)"> 
<path d="M723.908 440.886 L715.362 442.463 L709.719 435.85 L712.6269 427.66 L721.17 426.079 L726.8099 432.692 Z" fill="#8498d1" stroke="#010101" stroke-width="1" /> 
</g> 
<g transform="translate(268.464310 1496.60480) rotate(180)"> 
<path d="M98.24 735.748 L89.694 737.3289 L84.053 730.716 L86.958 722.521 L95.504 720.948 L101.145 727.562 Z" fill="#8498d1" stroke="#010101" stroke-width="1" /> 
</g> 
<g transform="translate(-497.186110 -162.07720) rotate(0)"> 
<path d="M705.242 936.159 L696.697 937.736 L691.053 931.123 L693.961 922.933 L702.504 921.353 L708.145 927.966 Z" fill="#8498d1" stroke="#010101" stroke-width="1" /> 
</g> 
<g transform="translate(-269.7810 -696.41450) rotate(0)"> 
<path d="M545.365 716.138 L536.818 717.715 L531.176 711.102 L534.0839 702.912 L542.6269 701.331 L548.266 707.944 Z" fill="#8498d1" stroke="#010101" stroke-width="1" /> 
</g> 
<g transform="translate(569.291710 -664.04680) rotate(90)"> 
<path d="M1103.253 301.624 L1094.708 303.201 L1089.064 296.588 L1091.973 288.398 L1100.516 286.817 L1106.155 293.431 Z" fill="#8498d1" stroke="#010101" stroke-width="1" /> 
</g> 
<g transform="translate(-603.209410 80.9730) rotate(0)"> 
<path d="M883.785 550.194 L875.24 551.771 L869.597 545.158 L872.505 536.968 L881.048 535.388 L886.688 542.001 Z" fill="#8498d1" stroke="#010101" stroke-width="1" /> 
</g> 
<g transform="translate(-659.250410 -228.32110) rotate(0)"> 
<path d="M940.365 831.666 L931.818 833.243 L926.176 826.63 L929.084 818.441 L937.627 816.859 L943.266 823.473 Z" fill="#8498d1" stroke="#010101" stroke-width="1" /> 
</g> 
<g transform="translate(90.391610 1130.16920) rotate(270)"> 
<path d="M943.376 192.316 L934.83 193.893 L929.188 187.279 L932.095 179.09 L940.638 177.5089 L946.277 184.122 Z" fill="#8498d1" stroke="#010101" stroke-width="1" /> 
</g> 
<g transform="translate(-478.958310 772.89920) rotate(270)"> 
<path d="M497.454 762.206 L488.908 763.787 L483.268 757.174 L486.173 748.98 L494.719 747.4059 L500.359 754.02 Z" fill="#8498d1" stroke="#010101" stroke-width="1" /> 
</g> 
<g transform="translate(-286.383810 287.93340) rotate(270)"> 
<path d="M145.239 571.488 L136.693 573.065 L131.049 566.452 L133.958 558.263 L142.5 556.682 L148.1399 563.295 Z" fill="#8498d1" stroke="#010101" stroke-width="1" /> 
</g> 
<g transform="translate(952.352210 1003.53530) rotate(180)"> 
<path d="M676.909 605.146 L668.363 606.727 L662.723 600.113 L665.628 591.92 L674.174 590.346 L679.814 596.9589 Z" fill="#8498d1" stroke="#010101" stroke-width="1" /> 
</g> 
<g transform="translate(-608.081210 213.02460) rotate(0)"> 
<path d="M896.377 356.575 L887.831 358.156 L882.19 351.543 L885.096 343.35 L893.642 341.776 L899.282 348.389 Z" fill="#8498d1" stroke="#010101" stroke-width="1" /> 
</g> 
<g transform="translate(-313.281710 1511.08430) rotate(270)"> 
<path d="M1057.909 602.939 L1049.363 604.521 L1043.723 597.907 L1046.628 589.714 L1055.174 588.14 L1060.814 594.753 Z" fill="#8498d1" stroke="#010101" stroke-width="1" /> 
</g> 
<g transform="translate(-171.46610 1714.510) rotate(270)"> 
<path d="M1027.805 461.804 L1019.259 463.381 L1013.618 456.768 L1016.523 448.578 L1025.069 447.001 L1030.7059 453.613 Z" fill="#8498d1" stroke="#010101" stroke-width="1" /> 
</g> 
<g transform="translate(925.052110 493.250) rotate(180)"> 
<path d="M646.8049 464.01 L638.259 465.587 L632.618 458.974 L635.523 450.784 L644.069 449.207 L649.706 455.819 Z" fill="#8498d1" stroke="#010101" stroke-width="1" /> 
</g> 
<g transform="translate(1142.704910 1100.77390) rotate(180)"> 
<path d="M863.262 854.79 L854.715 856.367 L849.074 849.754 L851.98 841.564 L860.525 839.987 L866.162 846.6 Z" fill="#8498d1" stroke="#010101" stroke-width="1" /> 
</g> 
<g transform="translate(1146.708310 514.51450) rotate(180)"> 
<path d="M866.271 215.44 L857.727 217.017 L852.086 210.403 L854.991 202.214 L863.537 200.637 L869.174 207.249 Z" fill="#8498d1" stroke="#010101" stroke-width="1" /> 
</g> 
<g transform="translate(348.719610 693.59340) rotate(180)"> 
<path d="M68.135 594.612 L59.589 596.189 L53.949 589.576 L56.854 581.3869 L65.4 579.8099 L71.037 586.422 Z" fill="#8498d1" stroke="#010101" stroke-width="1" /> 
</g> 
<g transform="translate(901.172210 36.2660) rotate(90)"> 
<path d="M467.35 621.07 L458.804 622.646 L453.163 616.034 L456.068 607.845 L464.614 606.268 L470.251 612.88 Z" fill="#8498d1" stroke="#010101" stroke-width="1" /> 
</g> 
<g transform="translate(-790.700310 1073.59380) rotate(270)"> 
<path d="M913.523 795.681 L913.523 806.381 L926.176 806.686 L926.75 796.848 Z" fill="#8498d1" stroke="#010101" stroke-width="1" /> 
</g> 
<g transform="translate(-237.854210 -27.89710) rotate(0)"> 
<path d="M517.611 561.961 L517.611 572.6609 L530.264 572.966 L530.838 563.128 Z" fill="#8498d1" stroke="#010101" stroke-width="1" /> 
</g> 
<g transform="translate(974.225810 648.55410) rotate(180)"> 
<path d="M681.412 260.823 L681.412 271.524 L694.064 271.827 L694.639 261.99 Z" fill="#8498d1" stroke="#010101" stroke-width="1" /> 
</g> 
<g transform="translate(-797.58410 -192.93120) rotate(0)"> 
<path d="M1078.067 402.694 L1078.067 413.395 L1090.719 413.699 L1091.2929 403.861 Z" fill="#8498d1" stroke="#010101" stroke-width="1" /> 
</g> 
<g transform="translate(1151.694710 691.30960) rotate(180)"> 
<path d="M856.944 514.2089 L856.944 524.909 L869.597 525.213 L870.171 515.376 Z" fill="#8498d1" stroke="#010101" stroke-width="1" /> 
</g> 
<g transform="translate(-398.015110 -133.18890) rotate(0)"> 
<path d="M678.4 900.174 L678.4 910.874 L691.053 911.178 L691.6269 901.341 Z" fill="#8498d1" stroke="#010101" stroke-width="1" /> 
</g> 
<g transform="translate(1212.278610 807.76620) rotate(180)"> 
<path d="M916.535 156.33 L916.535 167.03 L929.188 167.335 L929.761 157.497 Z" fill="#8498d1" stroke="#010101" stroke-width="1" /> 
</g> 
<g transform="translate(-414.051210 321.94850) rotate(0)"> 
<path d="M697.067 404.901 L697.067 415.601 L709.719 415.9049 L710.293 406.067 Z" fill="#8498d1" stroke="#010101" stroke-width="1" /> 
</g> 
<g transform="translate(1372.60910 353.81030) rotate(180)"> 
<path d="M1076.412 265.639 L1076.412 276.339 L1089.064 276.6429 L1089.6389 266.806 Z" fill="#8498d1" stroke="#010101" stroke-width="1" /> 
</g> 
<g transform="translate(-439.277410 813.11650) rotate(270)"> 
<path d="M118.398 535.503 L118.398 546.203 L131.049 546.508 L131.624 536.67 Z" fill="#8498d1" stroke="#010101" stroke-width="1" /> 
</g> 
<g transform="translate(752.058410 380.48150) rotate(90)"> 
<path d="M278.275 644.812 L278.275 655.5119 L290.927 655.815 L291.5009 645.979 Z" fill="#8498d1" stroke="#010101" stroke-width="1" /> 
</g> 
<g transform="translate(864.583910 -315.60580) rotate(90)"> 
<path d="M650.068 569.167 L650.068 579.861 L662.723 580.171 L663.294 570.3339 Z" fill="#8498d1" stroke="#010101" stroke-width="1" /> 
</g> 
<g transform="translate(863.364610 -977.81270) rotate(90)"> 
<path d="M1031.068 566.961 L1031.068 577.655 L1043.723 577.965 L1044.294 568.128 Z" fill="#8498d1" stroke="#010101" stroke-width="1" /> 
</g> 
<g transform="translate(-33.391510 1543.78430) rotate(270)"> 
<path d="M869.536 320.597 L869.536 331.291 L882.19 331.601 L882.762 321.764 Z" fill="#8498d1" stroke="#010101" stroke-width="1" /> 
</g> 
<g transform="translate(-350.758610 46.24860) rotate(0)"> 
<path d="M470.613 726.229 L470.613 736.922 L483.268 737.231 L483.839 727.395 Z" fill="#8498d1" stroke="#010101" stroke-width="1" /> 
</g> 
<g transform="translate(-694.789410 857.47150) rotate(270)"> 
<path d="M71.399 699.77 L71.399 710.464 L84.053 710.773 L84.625 700.938 Z" fill="#8498d1" stroke="#010101" stroke-width="1" /> 
</g> 
<g transform="translate(462.485610 -228.1080) rotate(90)"> 
<path d="M1000.963 425.818 L1000.963 436.516 L1014.189 436.261 L1014.189 426.985 Z" fill="#8498d1" stroke="#010101" stroke-width="1" /> 
</g> 
<g transform="translate(443.083310 168.99040) rotate(90)"> 
<path d="M604.309 283.947 L604.309 294.645 L617.535 294.389 L617.535 285.1139 Z" fill="#8498d1" stroke="#010101" stroke-width="1" /> 
</g> 
<g transform="translate(311.678810 1345.94790) rotate(180)"> 
<path d="M41.2939 558.6269 L41.2939 569.324 L54.52 569.069 L54.52 559.794 Z" fill="#8498d1" stroke="#010101" stroke-width="1" /> 
</g> 
<g transform="translate(884.283410 -435.5080) rotate(90)"> 
<path d="M440.508 585.085 L440.508 595.782 L453.734 595.527 L453.734 586.2519 Z" fill="#8498d1" stroke="#010101" stroke-width="1" /> 
</g> 
<g transform="translate(-404.156410 351.90340) rotate(0)"> 
<path d="M619.963 428.025 L619.963 438.722 L633.189 438.467 L633.189 429.192 Z" fill="#8498d1" stroke="#010101" stroke-width="1" /> 
</g> 
<g transform="translate(611.602910 2.50890) rotate(90)"> 
<path d="M779.841 537.333 L779.841 548.03 L793.067 547.775 L793.067 538.5 Z" fill="#8498d1" stroke="#010101" stroke-width="1" /> 
</g> 
<g transform="translate(-752.321810 -34.28930) rotate(0)"> 
<path d="M836.42 818.8049 L836.42 829.5019 L849.646 829.247 L849.646 819.972 Z" fill="#8498d1" stroke="#010101" stroke-width="1" /> 
</g> 
<g transform="translate(861.678910 582.5930) rotate(90)"> 
<path d="M201.171 667.936 L201.171 678.633 L214.398 678.3769 L214.398 669.104 Z" fill="#8498d1" stroke="#010101" stroke-width="1" /> 
</g> 
<g transform="translate(-559.175410 608.22040) rotate(0)"> 
<path d="M839.432 179.454 L839.432 190.151 L852.657 189.897 L852.657 180.621 Z" fill="#8498d1" stroke="#010101" stroke-width="1" /> 
</g> 
<g transform="translate(1298.707610 422.56220) rotate(180)"> 
<path d="M999.309 288.763 L999.309 299.46 L1012.535 299.204 L1012.535 289.93 Z" fill="#8498d1" stroke="#010101" stroke-width="1" /> 
</g> 
<g transform="translate(900.893110 1681.76950) rotate(180)"> 
<path d="M601.297 923.298 L601.297 933.995 L614.523 933.739 L614.523 924.465 Z" fill="#8498d1" stroke="#010101" stroke-width="1" /> 
</g> 
</g> 
</svg>